<svg version="1.1" id="Capa_1" xmlns="http://www.w3.org/2000/svg" xmlns:xlink="http://www.w3.org/1999/xlink" x="0px" y="0px"
	 viewBox="0 0 489.975 489.975" style="enable-background:new 0 0 489.975 489.975;" xml:space="preserve">
<g>
	<path d="M245.632,489.975L245.632,489.975c-135.4,0-244.9-151.1-244.9-337.6c0-11.5,9.4-20.8,20.8-20.8
		c41.7,0,81.3,13.5,116.7,40.6c14.6-62.5,46.9-120.9,92.7-166.7c8.3-7.3,20.8-7.3,28.1,0c46.9,45.8,79.2,104.2,92.7,166.7
		c35.4-27.1,75-40.6,116.7-40.6c11.5,0,20.8,9.4,20.8,20.8C490.532,337.875,381.132,489.975,245.632,489.975L245.632,489.975z
		 M42.432,174.275c7.3,153.2,95.9,275.1,203.2,275.1s195.9-121.9,203.2-275.1c-34.4,5.2-66.3,23.3-95.9,52.1
		c-8.9,8.7-30.5,9.9-34.4-11.5c-6.3-61.5-31.3-117.7-72.9-163.6c-40.6,45.8-66.7,103.2-72.9,163.6c-2.1,16.7-21.7,23.4-34.4,11.5
		C109.132,197.175,76.832,179.475,42.432,174.275z"/>
</g>
<g>
</g>
<g>
</g>
<g>
</g>
<g>
</g>
<g>
</g>
<g>
</g>
<g>
</g>
<g>
</g>
<g>
</g>
<g>
</g>
<g>
</g>
<g>
</g>
<g>
</g>
<g>
</g>
<g>
</g>
</svg>